<svg width="512" height="512" xmlns="http://www.w3.org/2000/svg">
 <!-- Created with UXWing SVG Editor - https://uxwing.com/svg-icon-editor/ -->
 <g>
  <title>background</title>
  <rect fill="none" id="canvas_background" height="514" width="514" y="-1" x="-1"/>
  <g display="none" overflow="visible" y="0" x="0" height="100%" width="100%" id="canvasGrid">
   <rect fill="url(#gridpattern)" stroke-width="0" y="0" x="0" height="100%" width="100%"/>
  </g>
 </g>
 <g>
  <title>Layer 1</title>
  <path id="svg_3" d="m46.370991,124.71312c-2.19191,0 -3.318539,-2.250145 -3.318539,-4.948166c0,-2.249542 0.563221,-4.433594 2.191898,-4.433594c1.12664,0 2.822639,2.184052 3.385876,4.433594c1.126633,3.275192 0,4.948166 -2.259235,4.948166zm374.682507,128.38327c5.014618,0 6.141235,0.577072 3.318512,4.43306c-1.628754,2.698181 -5.014587,4.947662 -6.64328,4.947662c-1.695862,0 -3.385803,-2.249481 -3.385803,-4.947662c0,-2.764404 2.259338,-4.43306 6.710571,-4.43306zm-350.105705,-157.04174c-5.014549,-1.091713 -5.577942,-6.620079 0,-8.289246c2.822479,-0.513969 4.451302,1.091621 4.451302,4.433563c0,2.763969 -1.628822,4.370255 -4.451302,3.855682zm-62.50737,174.646095c6.710546,-1.606445 6.710546,-2.761169 4.451312,-6.554321c-1.69004,-2.760895 -2.25327,-6.102478 -1.126636,-7.194458c0.563231,-1.672028 3.38587,0 5.01454,3.275665c2.259233,4.433441 3.949104,5.013916 8.400414,2.249481c2.76144,-1.669006 5.014542,-2.763702 5.014542,-1.091583c0,1.091583 1.695993,0 3.887892,-2.249573c3.386047,-3.275452 3.949287,-10.473053 0.563416,-14.329178c-2.755314,-3.275543 -16.739637,-2.183517 -20.627537,1.669052c-2.253265,2.764389 -3.949272,2.187073 -6.141174,-2.760529c-3.38587,-8.226852 -3.38587,-9.38176 4.451139,-9.895813c6.710543,0 6.710543,0 1.126637,-3.341522c-2.816502,-1.60643 -5.577775,-4.947632 -5.577775,-7.131714c0,-5.52803 7.775817,-8.803589 11.161682,-4.947433c1.126637,1.606033 3.318712,3.275543 5.577946,3.275543c4.451307,0 25.70327,-18.696823 25.70327,-22.552979c0,-1.672043 2.198044,-2.763489 4.451309,-1.672043c2.761269,0.580444 7.775986,-1.091446 12.857838,-3.856079c7.206467,-4.433014 7.206467,-4.947601 3.318558,-12.142059c-2.755302,-4.947723 -6.141151,-6.620163 -13.978348,-6.620163c-8.902454,0 -11.161694,1.092026 -13.916992,7.712112c-1.132774,4.433044 -4.518482,7.70874 -6.710556,7.70874c-3.887894,0 -5.01454,-4.944763 -1.126617,-7.70874c1.68985,-1.091949 2.816494,-4.947601 2.816494,-8.803757c0,-6.039932 -1.126644,-7.131638 -8.400414,-5.524979c-7.273775,1.091492 -7.273775,0.576981 -5.577938,-7.712646c1.126631,-4.94754 2.755301,-9.380707 3.888071,-9.895187c1.126633,-0.577103 2.253101,-5.52504 2.253101,-10.472763c0,-9.89624 3.324671,-11.565125 9.471979,-4.433487c2.816326,3.855957 4.512508,4.433487 5.577778,1.091583c1.12664,-2.18364 5.075737,-2.698196 11.223064,-1.606628c8.339226,2.184021 8.902435,1.606628 7.775803,-4.947708c-0.563229,-3.855515 -1.132603,-8.288994 -1.695835,-9.380623c0,-1.669441 -2.755314,-3.856079 -6.079967,-5.525597c-6.710556,-2.763443 -8.400425,-9.380615 -2.259266,-9.380615c1.696018,0 3.324516,-1.092087 3.324516,-3.279053c0,-1.669518 3.386047,-2.761078 7.837185,-2.24987c6.147316,0.580353 9.465851,-1.605721 17.866272,-13.170387c6.147301,-8.289597 10.59845,-12.722794 11.16185,-10.473228c0.563232,2.76104 3.385864,4.367126 6.14711,4.367126c4.451347,0 5.014732,-1.606087 3.386078,-8.80072c-0.569366,-4.947975 -3.386078,-10.987232 -5.081902,-13.751762c-5.014687,-6.105068 -5.014687,-13.236763 0,-11.053604c3.949135,2.18713 16.23745,-3.852665 16.23745,-7.708584c0,-1.672054 1.634804,-2.764004 3.887886,-2.764004c2.259407,0 3.324684,3.341431 3.324684,7.712036c0,5.525078 1.12664,7.709087 3.949287,6.10247c2.191864,-1.154789 3.888031,-4.433498 3.888031,-6.616993c0,-6.620495 17.866119,-18.185305 22.317261,-14.906769c1.696136,1.092438 3.385834,0 3.955536,-3.855572c1.628525,-7.712027 11.718842,-13.751824 16.169922,-9.895721c2.259399,1.606121 4.451492,1.092112 5.020828,-0.577032c1.12648,-2.186961 5.57785,-3.8561 10.592346,-4.370969c5.014557,-0.577029 11.725143,-2.764037 14.547745,-5.013529c10.592316,-7.131692 21.190918,-6.617149 25.64209,1.095389c2.822678,5.524757 3.949112,5.524757 3.949112,1.668648c0,-4.948046 2.198196,-5.525075 15.613113,-3.855611c21.252106,2.186963 24.576721,2.186963 32.41394,-0.577574c5.014587,-1.606433 6.710449,-1.09189 6.710449,3.341066c0,2.764582 1.628815,4.948228 3.888092,4.948228c1.689941,0 3.318573,-1.606617 3.318573,-3.278721c0,-4.433 8.969818,-6.617007 16.806854,-4.433c6.080048,2.186963 6.643188,2.763492 5.014587,17.607225c-0.563263,8.866695 0,14.906427 1.06546,14.906427c1.126282,0 2.259308,-3.856102 2.259308,-9.381168c0,-9.318293 6.141144,-13.171272 8.400299,-5.525259c0.563354,2.761209 2.191956,1.66914 3.318512,-2.698013c2.822815,-11.568145 8.969971,-5.528528 7.273865,7.131695c-1.689728,10.472746 -1.689728,10.472746 3.324951,6.616644c2.822357,-1.669153 5.01413,-6.039255 5.01413,-8.80065c0,-2.764175 1.696136,-6.042709 3.949463,-7.197676c4.450928,-2.183153 9.471832,6.102957 7.837067,12.145172c-0.563263,2.761585 -0.563263,4.948029 1.06543,4.948029c1.132751,0 2.259155,-1.606102 2.259155,-2.764029c0,-1.606426 2.761353,-2.184 6.147247,-1.091562c7.267822,1.669147 8.333099,6.102108 2.192017,8.800289c-1.628571,1.157959 -3.324677,3.856167 -3.324677,6.105957c0,3.856125 1.13266,3.856125 7.273926,0c10.029022,-6.616955 14.480072,-6.105957 16.1763,1.091579c1.126465,3.856106 3.324524,5.528225 5.577881,3.856106c2.259003,-0.577396 7.273682,1.672119 11.161804,5.525063c3.385956,3.278557 8.400421,6.039776 10.659546,6.039776c3.324768,0 3.324768,2.764347 2.191956,10.476002c-1.126465,8.289612 -1.126465,9.381264 2.259338,6.04023c4.451202,-5.462753 6.141174,-4.948608 7.776001,2.76049c0.563354,3.856056 4.512451,6.620071 8.963745,8.289238c5.014465,1.09539 7.775909,3.855904 7.775909,7.134651c0,3.341393 1.689728,7.19458 3.385895,9.381523c4.451263,3.855614 3.318542,15.420433 -1.696167,19.27636c-1.689728,1.154961 -3.887604,0.577545 -4.451172,-1.091599c-1.126556,-1.672531 -5.014465,-1.672531 -12.288483,0c-11.725067,3.852592 -13.917023,4.947655 -11.161743,9.958214c1.696014,3.275589 21.197021,2.183975 31.850708,-1.672012c3.324707,-1.669357 4.451233,0 4.451233,7.712112c0,5.524719 -1.126526,9.89566 -2.81665,9.89566c-1.13266,0 -2.197815,1.669067 -2.197815,4.433029c0,6.619904 2.761353,6.039261 10.035217,-1.669449c3.881714,-4.432953 6.1409,-5.528015 8.902527,-2.76358c2.816284,2.76358 3.385742,2.76358 3.385742,-1.669373c0,-2.701569 -1.132874,-4.947662 -2.822357,-4.947662c-1.065582,0 -2.198364,-2.187027 -2.198364,-4.370987c0,-2.763763 1.634979,-4.947739 3.887848,-4.947739c1.696136,0 3.949524,1.091568 3.949524,2.698196c0,1.672806 2.197968,3.855988 5.020538,4.433502c3.881989,1.67247 5.01474,3.856125 4.451111,10.473129c-1.132477,12.659378 1.126831,16.515869 9.465881,14.332214c3.949249,-1.095505 6.141022,0 4.451263,2.183655c-0.502014,1.091492 0,3.856003 1.126526,5.010162c4.518585,3.2789 2.822784,10.988083 -2.191986,10.988083c-6.147125,0 -7.837097,2.763535 -4.512299,7.711731c2.253143,2.764008 3.949036,3.275497 6.140991,1.091904c5.081879,-5.525085 6.147278,-1.091904 6.710541,20.94931c0,11.049759 1.126678,19.853882 2.253113,19.853882c2.761383,0 1.696136,12.145218 -2.253113,17.093033c-2.198059,2.760941 -2.198059,5.45903 -0.563263,7.70845c3.949097,4.948181 0,19.277466 -5.020752,19.277466c-4.450989,0 -12.851624,10.472626 -12.851624,15.420746c0,6.043091 -7.20639,0 -8.902588,-6.617279c-1.689606,-6.03952 -1.689606,-6.03952 -2.822449,-1.672028c-1.065369,5.01358 5.020752,20.434479 10.096588,24.804504c3.324554,3.341827 -2.822632,8.866577 -7.274139,6.61731c-2.259155,-1.091675 -3.324341,-4.367004 -3.324341,-7.708801c0,-9.380615 -13.978516,-33.028534 -24.576904,-41.894989c-5.639038,-4.370789 -10.653687,-9.318451 -10.653687,-10.987396c0,-3.34166 -17.872253,-13.751862 -27.901367,-17.093231c-5.583984,-1.672241 -7.274048,-1.091766 -7.274048,3.34137c0,3.275543 -1.065247,4.367188 -3.324554,3.275543c-5.014679,-2.184021 -7.273682,2.764572 -2.82251,7.712204c6.147064,6.039566 5.081818,13.236679 -1.62851,10.472763c-4.512665,-1.669128 -5.076019,-1.092041 -3.386017,8.289368c0.563354,5.462372 1.696045,12.659393 1.696045,15.935028c0,3.341553 1.126312,5.525635 2.253143,5.525635c1.634827,0 2.197937,-1.092224 1.065338,-2.761078c-0.563202,-1.672455 0.569489,-3.278717 2.82251,-3.278717c1.696106,0 3.324554,2.186554 3.324554,4.370178c0,2.25 -2.197693,4.433014 -6.147064,3.856628c-3.318481,0 -6.141174,-1.606628 -6.141174,-2.698669c0,-5.013977 -15.049866,-39.134064 -19.500885,-44.144623c-5.01474,-5.462738 -1.689941,-7.131668 -41.31662,18.762238c-6.14093,3.855988 -12.851532,12.145081 -16.237366,18.185303c-2.761475,6.039124 -7.212555,12.145203 -9.46579,13.236816c-2.259308,1.091919 -10.59848,9.89563 -17.872589,19.276733c-31.287201,41.31424 -26.205505,46.262299 -24.013367,130.633209c9.471863,63.932617 9.471863,63.932617 9.471863,63.932617c-22.323593,0 -22.323593,0 -22.323593,0c-18.429398,0 -18.429398,0 -18.429398,0c1.68985,-58.98822 1.68985,-58.98822 1.68985,-58.98822c1.126465,-4.944397 1.69603,-14.905792 2.259399,-20.431488c0.563202,-3.278625 -15.674316,-17.607727 -15.110855,-20.882965c0,-2.764008 16.800781,4.948181 16.800781,2.183685c2.7612,-40.222748 0,-72.222321 -7.273987,-89.252594c-1.689819,-10.473206 -15.674194,-44.141388 -17.866074,-44.141388c-0.563446,0 -4.512512,-3.278412 -8.400452,-7.134705c-6.710663,-7.194244 -9.465836,-7.709076 -46.900513,-9.895721c-40.189766,-2.246399 -40.189766,-2.246399 -40.189766,-2.246399c-9.527061,7.709045 -9.527061,7.709045 -9.527061,7.709045c-5.577774,5.013489 -11.161697,8.289368 -12.790535,8.289368c-3.385849,0 -17.370178,11.567505 -23.45015,18.184143c-0.563255,0 -1.126465,-0.576385 -1.126465,-1.091614c-0.563423,0 -0.563423,0 -0.563423,-0.577301c-0.563217,-1.60614 -1.132591,-3.278564 -2.259254,-4.947723c3.385887,-2.764038 6.147156,-4.436066 7.273781,-3.855499c1.689896,1.091461 3.324684,0 3.324684,-2.764618c0,-2.760895 -3.324684,-3.855957 -12.227104,-2.760895c-10.659824,1.669373 -13.421093,2.246277 -15.11095,8.80072c-2.761452,3.341309 -3.32468,8.289429 -1.689884,12.145538c-0.569534,4.947632 -0.569534,8.289093 0,8.289093c0.563259,0 1.126476,-1.091675 2.816494,-2.24942c0,0.577515 0.563248,1.157745 1.132629,1.672028c-5.58392,1.669006 -8.406555,6.617126 -7.837208,11.564728c-2.82246,2.249573 -5.583893,3.341461 -8.969601,5.01062c0,0 0,-0.576965 -0.502197,-0.576965c2.198044,-4.947693 3.324669,-10.473328 3.887905,-18.762451c1.132774,-9.318665 0.563221,-15.420715 -1.126465,-15.420715c-1.12664,0 -2.259243,2.24942 -2.259243,5.524475c0.563065,2.764679 -0.502197,5.525696 -2.755474,6.040131c-1.696011,0.576965 -2.822464,-0.514435 -2.822464,-3.275452c0,-6.6203 -2.192064,-6.6203 -7.212742,-0.580444c-2.253113,2.24939 -6.704418,4.94812 -10.592321,6.105927c-5.081877,1.606079 -6.710546,0.513855 -8.969781,-5.525482c-1.689867,-4.947693 -2.816502,-10.476196 -1.689867,-12.659698c0.563232,-2.764069 0.563232,-5.010712 -1.628669,-5.010712c-6.147313,0 -1.696004,-8.803986 5.57777,-10.476105zm48.026993,-126.711288c-3.385876,-0.577011 -6.147327,-2.183624 -7.273781,-4.433167c-0.563408,-3.278595 -1.126644,-3.278595 -1.126644,0c0,2.249542 -2.259239,3.856155 -4.451317,4.433167c-3.9491,0 -3.9491,0.577393 0.563408,2.764526c2.755142,1.091614 5.577778,2.760529 6.141006,2.760529c0.502033,0 3.324673,-1.668915 6.147327,-2.760529c5.014515,-2.764526 5.014515,-2.764526 0,-2.764526zm442.76754,88.737991c1.06546,1.092041 2.191986,-0.580368 2.191986,-3.341385c0,-2.186646 -1.126526,-4.370697 -2.191986,-4.370697c-1.69577,0 -2.822388,1.091949 -2.822388,2.698227c0,1.67247 1.126617,3.921936 2.822388,5.013855zm-3.949219,4.948059c-0.56308,-1.672485 -3.324554,-3.856018 -5.583771,-3.856018c-1.628632,0 -2.755066,2.183533 -1.628632,3.856018c0.501984,1.669083 2.761322,2.761047 5.014496,2.761047c2.197906,0 2.761322,-1.091965 2.197906,-2.761047zm-5.014343,24.801605c1.689789,0 3.949066,-0.577087 3.949066,-1.091583c0,-1.157898 -2.259277,-2.249573 -3.949066,-3.341583c-2.198059,-1.09198 -3.888123,-0.514496 -3.888123,1.09201c0,1.67215 1.690063,3.341156 3.888123,3.341156zm4.451263,-52.367599c2.253143,-1.092545 3.385681,-2.764404 2.816528,-4.370987c-1.690033,-3.918457 -11.155914,-3.918457 -11.155914,0c0,4.370987 3.318695,6.040146 8.339386,4.370987zm-30.662933,-41.318115c-2.822571,1.672501 -4.512268,4.947998 -3.949219,6.620117c2.822601,4.367676 6.147552,3.27562 8.963745,-3.856064c2.761414,-6.620193 1.634979,-7.711716 -5.014526,-2.764053zm-10.659607,84.882065c14.547485,14.843201 15.110962,15.420837 15.110962,10.472961c0,-2.760895 -1.126678,-5.010468 -2.822662,-5.010468c-1.628693,0 -4.451263,-2.764404 -6.140961,-6.039566c-1.628815,-3.278946 -5.014618,-6.62056 -7.77597,-6.62056c-5.075806,0 -5.075806,0.580444 1.628632,7.197632zm-11.719086,-25.959869c3.379883,0 5.014648,-1.091599 2.816772,-1.606277c-1.690125,-1.091949 -4.45163,-1.091949 -6.141357,0c-1.695984,0.514679 0,1.606277 3.324585,1.606277zm-16.176178,-74.920532c1.68988,1.669449 6.704193,3.853134 11.155609,4.948257c7.837341,1.668915 8.400452,1.668915 3.949097,-2.764114c-5.075745,-5.462692 -18.992615,-7.131607 -15.104706,-2.184143zm-34.048889,-91.43568c-1.689819,1.606136 -2.253143,4.947659 -1.689819,7.131176c1.126587,4.433533 4.451233,0.577576 4.451233,-6.0396c0,-3.341564 -0.563354,-3.856106 -2.761414,-1.091576zm16.739716,119.002163c4.451202,2.760757 6.147247,2.760757 8.406586,-1.094986c4.451233,-6.039978 1.628571,-8.800659 -6.710571,-4.947556c-6.710632,2.701172 -6.710632,2.701172 -1.696014,6.042542zm-11.155609,-27.566483c8.400299,-6.039078 8.400299,-6.039078 1.689972,-6.039078c-4.512665,0 -7.837311,2.183151 -9.527222,6.039078c-1.065338,3.853134 -2.198029,6.040131 -1.634796,6.040131c0,0 4.451385,-3.278961 9.472046,-6.040131zm-12.288513,89.315582c3.881714,6.040115 10.592468,6.040115 8.400543,-0.577408c-0.563385,-2.186646 -1.13269,-4.947647 -1.13269,-5.528214c0,-0.514572 -2.253265,-0.514572 -5.014618,0.580566c-4.512512,1.091919 -4.512512,2.761002 -2.253235,5.525055zm-17.30896,-22.618256c4.451019,6.039948 6.710602,6.616928 11.724915,2.183975c3.324768,-2.761093 3.324768,-2.761093 0,-3.275543c-1.689697,0 -6.140961,-0.580597 -10.028931,-1.672501c-5.583954,-2.183655 -5.583954,-2.183655 -1.695984,2.764069zm-0.563324,-60.080154c2.822479,0 6.147278,-8.80365 4.451355,-11.564636c-2.192047,-2.764053 -6.70459,1.668915 -6.70459,6.616913c0,2.764221 1.126556,4.947723 2.253235,4.947723zm-27.332123,37.46167c-3.385895,2.249481 -2.822388,2.764435 1.628937,2.764435c2.822388,0 6.141052,-1.095322 7.273621,-2.764435c1.68988,-4.370148 -3.887909,-4.370148 -8.902557,0zm0.563446,48.512283c0.502045,0.580521 2.191895,-0.577408 3.887878,-3.275543c1.689728,-2.249512 6.704559,-5.013611 10.592224,-6.105621c5.014832,-1.669479 7.273987,-4.367493 7.273987,-8.289429c0,-9.314774 -7.837158,-6.554321 -16.176483,5.528366c-3.385712,6.102631 -6.141052,11.050674 -5.577606,12.142227zm-6.147156,-25.379333c5.014435,-6.039246 5.014435,-7.134674 1.065063,-8.803711c-4.451019,-2.184174 -7.769562,2.764465 -7.769562,11.564789c-0.569458,6.620132 -0.569458,6.620132 6.704498,-2.761078zm-8.963776,-65.027649c0.563293,4.433029 1.689819,3.855988 5.014404,-4.370621c3.949371,-8.800751 3.949371,-9.958679 0.563416,-9.958679c-2.192017,0 -4.451447,1.669464 -5.014526,4.43364c-1.126678,2.183502 -1.126678,7.197586 -0.563293,9.89566zm-2.761475,-45.170845c0,2.246552 1.065338,7.709053 2.19809,11.564819c1.689758,7.711983 1.689758,7.711983 3.385834,1.091797c2.191956,-6.61657 0,-16.51223 -3.385834,-16.51223c-1.634857,0 -2.19809,1.668625 -2.19809,3.855614zm-39.118256,18.18174c-2.761444,3.85614 -2.761444,7.712234 -0.569458,19.276947c1.132629,8.289185 3.955444,16.57869 5.583862,18.185287c2.822693,2.764084 3.385803,0 3.949005,-17.090225c0,-20.883568 -2.822235,-27.503151 -8.963409,-20.372009zm5.014404,58.411133c0.563416,1.09198 1.689789,-1.092102 1.12677,-4.370544c0,-3.341553 -0.563354,-3.856155 -1.689972,-1.669144c-0.502197,2.183609 -0.502197,4.947586 0.563202,6.039688zm20.12558,-51.790955c-0.563202,1.092056 -0.563202,8.804169 1.126587,17.090271c1.695953,14.332214 2.197968,14.90921 2.761383,4.436111c0.563202,-17.093201 -0.563416,-25.382309 -3.88797,-21.526382zm-18.99881,155.435181c3.385864,-6.619965 8.963684,-17.670593 12.851563,-24.290344c4.451111,-7.132141 7.273834,-16.512894 8.400482,-25.893982c1.634735,-14.843765 1.634735,-14.843765 1.634735,-14.843765c-6.71048,8.226593 -6.71048,8.226593 -6.71048,8.226593c-3.324738,4.433548 -5.578033,9.381302 -5.578033,11.050674c0,4.37027 -10.598267,31.936096 -13.923096,36.884216c-1.689911,2.76059 -4.512451,8.866608 -5.014587,13.236816c-2.822571,12.657196 2.198242,10.472931 8.339417,-4.370209zm-39.626724,56.738617c1.696075,10.987457 1.696075,10.987457 7.274002,-12.659821c3.324646,-12.72287 8.339172,-33.091064 11.725006,-45.75119c4.451111,-15.998199 6.147156,-29.235107 6.147156,-47.934509c0,-24.287827 -0.569305,-24.802277 -5.020447,-22.037735c-10.090393,7.131516 -15.674423,26.985367 -17.927643,65.53862c-1.065231,19.857849 -2.198074,39.711639 -3.324493,44.082275c-0.563416,4.433289 0,12.722717 1.126419,18.76236zm1.132843,-141.043549c2.191803,5.462616 4.451157,9.895752 4.451157,9.895752c0.563202,0 3.318542,-3.34166 5.577881,-7.711807c2.822357,-3.852921 7.273804,-8.286133 8.963837,-9.892685c6.649139,-5.013489 8.33902,-20.434235 2.761169,-30.907364c-4.451202,-9.381104 -16.739685,-19.857376 -18.998993,-16.515839c-1.12645,1.091965 -2.755051,11.568192 -3.887894,23.710419c-2.253036,18.184753 -2.253036,23.712784 1.132843,31.421524zm-3.38588,-126.19928c1.126617,1.094978 2.253036,0.514473 2.253036,-1.154404c0,-2.187035 -1.126419,-4.371017 -2.253036,-5.462753c-1.69606,-1.157776 -2.761414,-0.577477 -2.761414,1.606552c0,1.669167 1.065353,3.856201 2.761414,5.010605zm-180.884888,148.174347c7.775826,0.580338 7.775826,0.580338 7.775826,0.580338c7.837189,0 15.674377,-7.134659 15.674377,-13.236725c0,-3.856064 -0.56324,-3.856064 -23.450203,12.656387zm3.324669,-15.420975c0,1.672989 1.126663,3.34166 2.822678,3.34166c2.755287,0 10.592316,-9.895752 8.902451,-11.564728c-1.696014,-2.249481 -11.725128,4.947418 -11.725128,8.223068zm6.147156,-37.975616c8.400574,10.990128 12.288483,12.08223 16.739647,4.947556c4.512489,-6.61676 0.56337,-11.05014 -12.857689,-12.656799c-11.155716,-1.672501 -11.155716,-1.672501 -3.881958,7.709244zm-6.147156,-30.904556c0,1.154404 3.949142,3.8526 8.400452,6.102066c20.627678,10.473282 24.576813,10.473282 24.01339,0.514969c0,-6.040024 -8.400398,-19.27713 -11.725098,-19.27713c-3.949127,0 -20.688744,10.473068 -20.688744,12.660095zm30.160721,78.261917c6.141174,0 6.704422,-1.66951 1.689903,-4.36763c-2.259232,-0.580414 -4.451332,0 -5.014595,1.606537c-1.132713,1.668594 0.563263,2.761093 3.324692,2.761093zm4.451332,-129.475395c-3.8881,-2.764397 -8.908737,-3.855942 -11.16188,-2.764397c-3.887878,2.186989 -3.324638,2.764397 2.253143,4.432953c2.761436,1.095413 8.406715,2.187126 11.161827,2.701698c3.324684,0 3.324684,-1.095062 -2.25309,-4.370255zm-0.502022,19.853943c3.318344,0 3.887871,-0.577469 1.628654,-2.246552c-1.628654,-0.514183 -3.888062,-0.514183 -5.014732,0.57756c-0.563232,1.091522 1.126671,2.183998 3.386078,1.668991zm3.318344,12.66021c-7.836983,0 -7.836983,0.513985 -3.318344,4.947433c5.577728,4.947723 7.206421,5.524734 9.465874,2.183685c3.887711,-4.367699 1.126411,-7.131119 -6.14753,-7.131119zm11.16201,-62.264164c-2.259361,-2.764008 -2.822609,2.184002 -1.690002,8.223629c0.563232,3.856056 2.816505,7.197105 3.949249,7.197105c2.191917,0 0.56324,-12.145157 -2.259247,-15.420734zm17.866135,72.736332c-1.126495,0.515045 1.695953,3.856171 5.02063,6.620544c3.38588,2.761017 6.140991,3.852707 6.140991,2.183624c0,-3.855637 -9.465668,-11.053162 -11.161621,-8.804169zm-13.978371,3.856171c-5.014534,3.85643 -2.191895,13.751602 5.075912,15.421051c3.887871,1.091721 10.03521,5.525284 13.923088,9.895416c3.38588,4.433472 6.140991,6.105972 6.140991,4.433472c0,-5.525085 -22.317329,-31.999481 -25.139992,-29.749939zm22.886955,45.751617c-3.324524,-8.87001 -7.212631,-13.237625 -14.486511,-16.001678c-5.577782,-2.18364 -11.161705,-3.341064 -12.851585,-2.760635c-1.695984,0.576996 5.014542,7.708633 14.547737,15.997925c17.866028,14.329208 17.866028,14.329208 12.790359,2.764389zm29.652481,-84.882462c-1.126556,0 -2.259399,2.18399 -2.259399,4.367691c0,2.763985 1.132843,4.433464 2.259399,4.433464c1.628723,0 2.761429,-1.669479 2.761429,-4.433464c0,-2.183701 -1.132706,-4.367691 -2.761429,-4.367691zm-5.075668,45.170929c0,3.855591 9.527054,1.091904 13.414948,-3.856125c5.577927,-8.289124 5.014496,-10.473068 -2.259186,-10.473068c-5.014618,0 -11.155762,7.712372 -11.155762,14.329193zm16.237549,-119.002676c-1.695984,7.131689 -2.822601,13.171263 -2.259247,13.751795c1.695938,2.184002 6.147308,-14.328831 6.147308,-20.948959c0,-2.761047 -1.696167,0.580515 -3.888062,7.197165zm29.028152,111.290442c-2.822678,0 -5.014694,1.095413 -5.014694,3.278595c0,1.669464 1.628555,2.764542 3.318497,2.764542c2.259186,0 4.451309,-1.095078 5.020691,-2.764542c1.126541,-2.183182 -0.569382,-3.278595 -3.324493,-3.278595zm-6.710724,103.581421c3.324585,9.961792 8.339203,19.276901 11.161758,21.526382c2.822693,1.669312 8.400497,9.381409 11.72522,17.093109c3.324631,7.709167 6.71051,13.748962 7.27388,13.748962c2.755127,0 -2.822632,-50.695923 -6.710556,-66.119766c-3.386002,-13.23381 -4.451492,-25.379349 -3.888046,-44.656265c0.502045,-14.328735 0,-26.988922 -1.126465,-28.080643c-0.563385,-1.091965 -4.45134,-1.091965 -7.837189,0c-6.147339,2.183685 -6.710556,3.856094 -6.710556,16.001389c0,9.315292 -1.126724,14.329178 -3.888046,16.512299c-7.837021,4.948196 -7.273727,33.028656 0,53.974533zm-16.176193,-73.828308c-1.126694,-8.28923 -2.253174,-9.381104 -8.400482,-9.381104c-7.273911,0 -7.273911,0.577286 -6.710541,12.142227c0,7.134628 1.132629,15.423584 1.695816,19.276703c0.563477,3.856049 2.76149,7.711655 5.014725,8.289093c4.451141,2.764465 9.465698,-16.512238 8.400482,-30.32692zm-8.400482,55.643509c-5.014725,-6.617203 -8.400391,-13.748962 -8.902634,-15.420822c0,-2.183655 -2.822433,-7.708771 -6.141083,-12.656708c-3.38591,-4.947739 -7.273804,-11.053284 -8.969849,-13.237198c-5.577789,-7.711807 -4.451324,-1.09166 1.696045,15.998138c3.887894,11.567627 10.592453,22.041046 18.429459,30.844589c14.486404,14.906235 16.176468,12.142624 3.888062,-5.528zm-8.902634,27.051514c6.080093,0 5.577957,-0.577225 -2.822433,-9.38089c-5.578018,-5.525452 -9.465851,-11.565018 -9.465851,-14.329239c0,-2.183472 -7.273972,-9.958588 -15.674133,-17.090347c-8.339401,-7.196899 -16.176575,-14.328568 -17.303055,-16.515213c-1.132813,-2.761093 -1.696022,-2.761093 -1.696022,0.514542c0,3.341599 -2.75528,3.855606 -11.725067,2.183594c-6.141197,-1.092072 -11.155724,-1.092072 -11.155724,-0.51149c0,1.091919 2.253075,7.708984 4.512459,14.328568c3.888145,10.987885 5.57782,13.237793 17.866302,17.605026c7.775963,2.764069 20.064079,9.381027 27.901268,14.328735c7.273972,5.013977 16.176407,8.866714 19.562256,8.866714zm-87.151321,18.699219c2.25927,0 5.583908,-1.091522 7.837051,-2.76355c3.888077,-3.853088 0.569519,-3.853088 -6.70443,0c-3.324692,1.672028 -3.887894,2.186462 -1.132622,2.76355zm-6.141136,-13.751617c5.577919,-2.246201 23.450172,-4.433228 39.687744,-4.433228c30.656761,-0.514374 36.803917,-2.18306 24.51545,-5.52504c-3.887741,-1.091476 -12.790375,-3.856049 -20.064156,-6.617218c-12.851669,-4.947601 -39.12455,-3.278458 -41.879807,2.246994c-0.569366,1.094681 -3.385895,1.672089 -6.147171,1.094681c-5.577934,-1.672104 -11.161858,2.761398 -12.851677,11.565155c-2.259258,7.131241 1.689819,7.711716 16.739616,1.668655zm-44.641129,12.660095c1.126644,4.43338 6.710545,4.947723 11.161861,1.091522c2.755131,-2.183594 2.755131,-3.275116 0,-6.616638c-2.259239,-3.279053 -3.887909,-3.279053 -7.273777,-0.514496c-2.259243,1.606598 -3.888084,4.367584 -3.888084,6.039612zm-17.866257,38.55368c2.192072,0 3.318712,1.669556 2.192072,4.94812c-0.502201,2.249268 -2.192072,4.433075 -3.32468,4.433075c-1.689856,0 -2.755295,-2.183807 -2.755295,-4.433075c0,-2.698334 1.62867,-4.94812 3.887903,-4.94812z" stroke-opacity="null" stroke-width="0.001" stroke="#FF0000" fill="#007f00"/>
 </g>
</svg>